<?xml version="1.0" encoding="UTF-8"?>
<svg xmlns="http://www.w3.org/2000/svg" xmlns:xlink="http://www.w3.org/1999/xlink" width="100px" height="77px" viewBox="0 0 100 77" version="1.1">
<defs>
<linearGradient id="linear0" gradientUnits="userSpaceOnUse" x1="117.385597" y1="81.398598" x2="157.329895" y2="81.398598" gradientTransform="matrix(0.683068,0,0,0.680124,-13.252443,-12.703213)">
<stop offset="0" style="stop-color:rgb(0%,47.45098%,25.098039%);stop-opacity:1;"/>
<stop offset="0.2285" style="stop-color:rgb(0%,52.941176%,24.705882%);stop-opacity:1;"/>
<stop offset="0.7433" style="stop-color:rgb(25.098039%,65.490196%,21.568627%);stop-opacity:1;"/>
<stop offset="1" style="stop-color:rgb(36.078431%,70.980392%,19.215686%);stop-opacity:1;"/>
</linearGradient>
<linearGradient id="linear1" gradientUnits="userSpaceOnUse" x1="117.384399" y1="75.171402" x2="157.331802" y2="75.171402" gradientTransform="matrix(0.683068,0,0,0.680124,-13.252443,-12.703213)">
<stop offset="0" style="stop-color:rgb(0%,47.45098%,25.098039%);stop-opacity:1;"/>
<stop offset="0.2285" style="stop-color:rgb(0%,52.941176%,24.705882%);stop-opacity:1;"/>
<stop offset="0.7433" style="stop-color:rgb(25.098039%,65.490196%,21.568627%);stop-opacity:1;"/>
<stop offset="1" style="stop-color:rgb(36.078431%,70.980392%,19.215686%);stop-opacity:1;"/>
</linearGradient>
<linearGradient id="linear2" gradientUnits="userSpaceOnUse" x1="117.384598" y1="68.399101" x2="157.330505" y2="68.399101" gradientTransform="matrix(0.683068,0,0,0.680124,-13.252443,-12.703213)">
<stop offset="0" style="stop-color:rgb(0%,47.45098%,25.098039%);stop-opacity:1;"/>
<stop offset="0.2285" style="stop-color:rgb(0%,52.941176%,24.705882%);stop-opacity:1;"/>
<stop offset="0.7433" style="stop-color:rgb(25.098039%,65.490196%,21.568627%);stop-opacity:1;"/>
<stop offset="1" style="stop-color:rgb(36.078431%,70.980392%,19.215686%);stop-opacity:1;"/>
</linearGradient>
<linearGradient id="linear3" gradientUnits="userSpaceOnUse" x1="27.9594" y1="75.171402" x2="68.522102" y2="75.171402" gradientTransform="matrix(0.683068,0,0,0.680124,-13.252443,-12.703213)">
<stop offset="0" style="stop-color:rgb(12.156863%,15.686275%,43.529412%);stop-opacity:1;"/>
<stop offset="0.4751" style="stop-color:rgb(0%,30.588235%,58.039216%);stop-opacity:1;"/>
<stop offset="0.8261" style="stop-color:rgb(0%,40%,69.411765%);stop-opacity:1;"/>
<stop offset="1" style="stop-color:rgb(0%,43.529412%,73.72549%);stop-opacity:1;"/>
</linearGradient>
<linearGradient id="linear4" gradientUnits="userSpaceOnUse" x1="72.459503" y1="75.171402" x2="111.855301" y2="75.171402" gradientTransform="matrix(0.683068,0,0,0.680124,-13.252443,-12.703213)">
<stop offset="0" style="stop-color:rgb(42.352941%,17.254902%,18.431373%);stop-opacity:1;"/>
<stop offset="0.1735" style="stop-color:rgb(53.333333%,15.294118%,18.823529%);stop-opacity:1;"/>
<stop offset="0.5731" style="stop-color:rgb(74.509804%,9.411765%,20%);stop-opacity:1;"/>
<stop offset="0.8585" style="stop-color:rgb(86.27451%,1.568627%,21.176471%);stop-opacity:1;"/>
<stop offset="1" style="stop-color:rgb(90.196078%,0%,22.352941%);stop-opacity:1;"/>
</linearGradient>
</defs>
<g id="surface1">
<path style=" stroke:none;fill-rule:nonzero;fill:rgb(100%,100%,100%);fill-opacity:1;" d="M 99.667969 61.148438 C 99.667969 69.613281 92.746094 76.503906 84.246094 76.503906 L 0.332031 76.503906 L 0.332031 15.6875 C 0.332031 7.222656 7.253906 0.332031 15.753906 0.332031 L 99.667969 0.332031 Z M 99.667969 61.148438 "/>
<path style=" stroke:none;fill-rule:nonzero;fill:url(#linear0);" d="M 72.34375 45.550781 L 78.71875 45.550781 C 78.902344 45.550781 79.328125 45.492188 79.507812 45.492188 C 80.722656 45.25 81.753906 44.164062 81.753906 42.652344 C 81.753906 41.199219 80.722656 40.113281 79.507812 39.808594 C 79.328125 39.75 78.960938 39.75 78.71875 39.75 L 72.34375 39.75 Z M 72.34375 45.550781 "/>
<path style=" stroke:none;fill-rule:nonzero;fill:url(#linear1);" d="M 77.992188 5.46875 C 71.917969 5.46875 66.941406 10.367188 66.941406 16.472656 L 66.941406 27.898438 L 82.542969 27.898438 C 82.910156 27.898438 83.332031 27.898438 83.636719 27.960938 C 87.160156 28.140625 89.769531 29.957031 89.769531 33.097656 C 89.769531 35.578125 88.007812 37.695312 84.730469 38.117188 L 84.730469 38.238281 C 88.3125 38.480469 91.042969 40.472656 91.042969 43.558594 C 91.042969 46.882812 88.007812 49.058594 84 49.058594 L 66.878906 49.058594 L 66.878906 71.425781 L 83.089844 71.425781 C 89.164062 71.425781 94.140625 66.53125 94.140625 60.425781 L 94.140625 5.46875 Z M 77.992188 5.46875 "/>
<path style=" stroke:none;fill-rule:nonzero;fill:url(#linear2);" d="M 80.964844 33.824219 C 80.964844 32.375 79.933594 31.40625 78.71875 31.226562 C 78.597656 31.226562 78.292969 31.164062 78.113281 31.164062 L 72.34375 31.164062 L 72.34375 36.484375 L 78.113281 36.484375 C 78.292969 36.484375 78.660156 36.484375 78.71875 36.421875 C 79.933594 36.242188 80.964844 35.273438 80.964844 33.824219 Z M 80.964844 33.824219 "/>
<path style=" stroke:none;fill-rule:nonzero;fill:url(#linear3);" d="M 16.910156 5.46875 C 10.835938 5.46875 5.859375 10.367188 5.859375 16.472656 L 5.859375 43.617188 C 8.957031 45.128906 12.171875 46.097656 15.390625 46.097656 C 19.214844 46.097656 21.28125 43.800781 21.28125 40.65625 L 21.28125 27.839844 L 30.753906 27.839844 L 30.753906 40.59375 C 30.753906 45.550781 27.65625 49.601562 17.152344 49.601562 C 10.777344 49.601562 5.796875 48.210938 5.796875 48.210938 L 5.796875 71.367188 L 22.007812 71.367188 C 28.082031 71.367188 33.058594 66.46875 33.058594 60.363281 L 33.058594 5.46875 Z M 16.910156 5.46875 "/>
<path style=" stroke:none;fill-rule:nonzero;fill:url(#linear4);" d="M 47.449219 5.46875 C 41.378906 5.46875 36.398438 10.367188 36.398438 16.472656 L 36.398438 30.863281 C 39.191406 28.503906 44.050781 26.992188 51.882812 27.355469 C 56.070312 27.535156 60.566406 28.683594 60.566406 28.683594 L 60.566406 33.339844 C 58.316406 32.191406 55.648438 31.164062 52.1875 30.921875 C 46.234375 30.5 42.652344 33.402344 42.652344 38.480469 C 42.652344 43.617188 46.234375 46.519531 52.1875 46.035156 C 55.648438 45.792969 58.316406 44.707031 60.566406 43.617188 L 60.566406 48.273438 C 60.566406 48.273438 56.132812 49.421875 51.882812 49.601562 C 44.050781 49.964844 39.191406 48.453125 36.398438 46.097656 L 36.398438 71.488281 L 52.609375 71.488281 C 58.683594 71.488281 63.660156 66.589844 63.660156 60.484375 L 63.660156 5.46875 Z M 47.449219 5.46875 "/>
</g>
</svg>
