<?xml version="1.0" encoding="UTF-8"?>
<svg xmlns="http://www.w3.org/2000/svg" xmlns:xlink="http://www.w3.org/1999/xlink" width="100px" height="60px" viewBox="0 0 100 60" version="1.1">
<g id="surface1">
<path style=" stroke:none;fill-rule:nonzero;fill:rgb(100%,60.000002%,0%);fill-opacity:1;" d="M 99.34375 30.167969 C 99.347656 46.480469 86.128906 59.703125 69.816406 59.710938 C 53.503906 59.714844 40.277344 46.492188 40.273438 30.183594 C 40.273438 30.175781 40.273438 30.171875 40.273438 30.167969 C 40.269531 13.855469 53.488281 0.628906 69.800781 0.625 C 86.113281 0.621094 99.339844 13.839844 99.34375 30.152344 C 99.34375 30.15625 99.34375 30.160156 99.34375 30.167969 Z M 99.34375 30.167969 "/>
<path style=" stroke:none;fill-rule:nonzero;fill:rgb(80.000001%,0%,0%);fill-opacity:1;" d="M 30 0.632812 C 13.785156 0.734375 0.65625 13.925781 0.65625 30.167969 C 0.65625 46.46875 13.886719 59.703125 30.191406 59.703125 C 37.84375 59.703125 44.816406 56.785156 50.066406 52.007812 C 50.066406 52.007812 50.0625 52.003906 50.0625 52.003906 L 50.070312 52.003906 C 51.144531 51.023438 52.144531 49.96875 53.066406 48.84375 L 47.015625 48.84375 C 46.207031 47.867188 45.472656 46.847656 44.816406 45.800781 L 55.25 45.800781 C 55.886719 44.785156 56.460938 43.730469 56.96875 42.636719 L 43.089844 42.636719 C 42.617188 41.621094 42.207031 40.585938 41.855469 39.535156 L 58.207031 39.535156 C 59.191406 36.589844 59.726562 33.441406 59.726562 30.167969 C 59.726562 27.996094 59.492188 25.878906 59.046875 23.839844 L 40.992188 23.839844 C 41.214844 22.792969 41.496094 21.757812 41.832031 20.738281 L 58.1875 20.738281 C 57.820312 19.65625 57.398438 18.601562 56.914062 17.578125 L 43.089844 17.578125 C 43.589844 16.511719 44.152344 15.476562 44.785156 14.472656 L 55.214844 14.472656 C 54.519531 13.367188 53.75 12.3125 52.921875 11.3125 L 47.105469 11.3125 C 48.003906 10.253906 48.996094 9.257812 50.070312 8.328125 C 44.820312 3.546875 37.84375 0.632812 30.191406 0.632812 C 30.128906 0.632812 30.0625 0.632812 30 0.632812 Z M 30 0.632812 "/>
<path style=" stroke:none;fill-rule:nonzero;fill:rgb(98.823529%,70.19608%,25.098041%);fill-opacity:1;" d="M 96.382812 45.605469 C 96.542969 45.605469 96.699219 45.648438 96.851562 45.730469 C 97.003906 45.8125 97.121094 45.929688 97.207031 46.085938 C 97.292969 46.238281 97.335938 46.398438 97.335938 46.5625 C 97.335938 46.726562 97.292969 46.886719 97.210938 47.039062 C 97.125 47.1875 97.007812 47.308594 96.855469 47.390625 C 96.703125 47.476562 96.546875 47.515625 96.378906 47.515625 C 96.214844 47.515625 96.058594 47.476562 95.90625 47.390625 C 95.753906 47.308594 95.636719 47.1875 95.550781 47.039062 C 95.46875 46.886719 95.425781 46.726562 95.425781 46.5625 C 95.425781 46.398438 95.46875 46.238281 95.554688 46.085938 C 95.640625 45.929688 95.757812 45.8125 95.910156 45.730469 C 96.0625 45.648438 96.21875 45.605469 96.382812 45.605469 M 96.382812 45.765625 C 96.246094 45.765625 96.117188 45.800781 95.988281 45.867188 C 95.863281 45.9375 95.761719 46.035156 95.691406 46.164062 C 95.621094 46.292969 95.582031 46.425781 95.582031 46.5625 C 95.582031 46.699219 95.617188 46.832031 95.6875 46.957031 C 95.761719 47.085938 95.859375 47.183594 95.984375 47.253906 C 96.113281 47.324219 96.242188 47.359375 96.378906 47.359375 C 96.519531 47.359375 96.652344 47.324219 96.777344 47.253906 C 96.902344 47.183594 97 47.085938 97.070312 46.957031 C 97.140625 46.832031 97.175781 46.699219 97.175781 46.5625 C 97.175781 46.425781 97.140625 46.292969 97.070312 46.164062 C 96.996094 46.035156 96.898438 45.9375 96.769531 45.867188 C 96.644531 45.800781 96.515625 45.765625 96.382812 45.765625 M 95.960938 47.089844 L 95.960938 46.0625 L 96.316406 46.0625 C 96.4375 46.0625 96.523438 46.070312 96.578125 46.09375 C 96.632812 46.109375 96.675781 46.144531 96.707031 46.191406 C 96.738281 46.238281 96.753906 46.289062 96.753906 46.339844 C 96.753906 46.417969 96.726562 46.480469 96.675781 46.539062 C 96.621094 46.59375 96.550781 46.625 96.460938 46.632812 C 96.496094 46.644531 96.527344 46.664062 96.550781 46.6875 C 96.589844 46.726562 96.640625 46.792969 96.699219 46.890625 L 96.824219 47.089844 L 96.625 47.089844 L 96.535156 46.929688 C 96.460938 46.800781 96.402344 46.722656 96.359375 46.6875 C 96.328125 46.664062 96.285156 46.652344 96.226562 46.652344 L 96.128906 46.652344 L 96.128906 47.089844 L 95.964844 47.089844 M 96.128906 46.511719 L 96.328125 46.511719 C 96.425781 46.511719 96.492188 46.496094 96.527344 46.46875 C 96.5625 46.4375 96.578125 46.402344 96.578125 46.355469 C 96.578125 46.324219 96.570312 46.296875 96.554688 46.273438 C 96.535156 46.25 96.511719 46.230469 96.484375 46.21875 C 96.453125 46.207031 96.398438 46.199219 96.316406 46.199219 L 96.128906 46.199219 L 96.128906 46.511719 "/>
<path style=" stroke:none;fill-rule:nonzero;fill:rgb(0%,0%,40.000001%);fill-opacity:1;" d="M 39.992188 38.640625 L 40.386719 35.964844 C 40.171875 35.964844 39.855469 36.058594 39.574219 36.058594 C 38.480469 36.058594 38.34375 35.476562 38.429688 35.046875 L 39.507812 29.671875 L 41.171875 29.671875 L 41.515625 26.636719 L 39.945312 26.636719 L 40.265625 24.796875 L 36.984375 24.796875 C 36.914062 24.867188 35.128906 35.136719 35.128906 36.390625 C 35.128906 38.242188 36.167969 39.066406 37.632812 39.050781 C 38.78125 39.042969 39.675781 38.726562 39.992188 38.640625 Z M 39.992188 38.640625 "/>
<path style=" stroke:none;fill-rule:nonzero;fill:rgb(0%,0%,40.000001%);fill-opacity:1;" d="M 40.988281 33.542969 C 40.988281 37.988281 43.921875 39.042969 46.417969 39.042969 C 48.726562 39.042969 49.9375 38.507812 49.9375 38.507812 L 50.492188 35.476562 C 50.492188 35.476562 48.539062 36.269531 46.957031 36.269531 C 43.578125 36.269531 44.171875 33.75 44.171875 33.75 L 50.660156 33.769531 C 50.660156 33.769531 51.074219 31.734375 51.074219 30.902344 C 51.074219 28.832031 49.941406 26.285156 46.492188 26.285156 C 43.328125 26.285156 40.988281 29.695312 40.988281 33.542969 Z M 46.503906 29.101562 C 48.277344 29.101562 47.949219 31.097656 47.949219 31.257812 L 44.457031 31.257812 C 44.457031 31.050781 44.789062 29.101562 46.503906 29.101562 Z M 46.503906 29.101562 "/>
<path style=" stroke:none;fill-rule:nonzero;fill:rgb(0%,0%,40.000001%);fill-opacity:1;" d="M 66.414062 38.640625 L 66.976562 35.210938 C 66.976562 35.210938 65.433594 35.984375 64.375 35.984375 C 62.144531 35.984375 61.25 34.28125 61.25 32.449219 C 61.25 28.738281 63.167969 26.695312 65.304688 26.695312 C 66.910156 26.695312 68.195312 27.59375 68.195312 27.59375 L 68.707031 24.265625 C 68.707031 24.265625 67.191406 23.167969 65.554688 23.160156 C 60.640625 23.144531 57.828125 26.566406 57.828125 32.480469 C 57.828125 36.402344 59.910156 39.070312 63.664062 39.070312 C 64.726562 39.070312 66.414062 38.640625 66.414062 38.640625 Z M 66.414062 38.640625 "/>
<path style=" stroke:none;fill-rule:nonzero;fill:rgb(0%,0%,40.000001%);fill-opacity:1;" d="M 22.695312 26.335938 C 20.539062 26.335938 18.886719 27.027344 18.886719 27.027344 L 18.429688 29.738281 C 18.429688 29.738281 19.792969 29.183594 21.855469 29.183594 C 23.027344 29.183594 23.882812 29.316406 23.882812 30.265625 C 23.882812 30.84375 23.78125 31.058594 23.78125 31.058594 C 23.78125 31.058594 22.855469 30.980469 22.425781 30.980469 C 19.359375 30.980469 16.851562 32.140625 16.851562 35.640625 C 16.851562 38.398438 18.726562 39.03125 19.886719 39.03125 C 22.105469 39.03125 22.984375 37.628906 23.035156 37.625 L 23.007812 38.789062 C 23.007812 38.789062 25.777344 38.789062 25.777344 38.789062 L 27.015625 30.128906 C 27.015625 26.453125 23.808594 26.335938 22.695312 26.335938 Z M 23.175781 33.367188 C 23.234375 33.894531 23.039062 36.394531 21.144531 36.394531 C 20.167969 36.394531 19.914062 35.648438 19.914062 35.207031 C 19.914062 34.347656 20.382812 33.3125 22.683594 33.3125 C 23.222656 33.3125 23.085938 33.351562 23.175781 33.367188 Z M 23.175781 33.367188 "/>
<path style=" stroke:none;fill-rule:nonzero;fill:rgb(0%,0%,40.000001%);fill-opacity:1;" d="M 29.957031 38.964844 C 30.664062 38.964844 34.714844 39.148438 34.714844 34.96875 C 34.714844 31.0625 30.964844 31.832031 30.964844 30.265625 C 30.964844 29.484375 31.578125 29.238281 32.695312 29.238281 C 33.136719 29.238281 34.84375 29.378906 34.84375 29.378906 L 35.238281 26.601562 C 35.238281 26.601562 34.136719 26.355469 32.339844 26.355469 C 30.011719 26.355469 27.652344 27.285156 27.652344 30.460938 C 27.652344 34.0625 31.589844 33.699219 31.589844 35.214844 C 31.589844 36.230469 30.488281 36.3125 29.640625 36.3125 C 28.171875 36.3125 26.851562 35.808594 26.847656 35.832031 L 26.429688 38.582031 C 26.503906 38.605469 27.320312 38.964844 29.957031 38.964844 Z M 29.957031 38.964844 "/>
<path style=" stroke:none;fill-rule:nonzero;fill:rgb(0%,0%,40.000001%);fill-opacity:1;" d="M 92.355469 23.816406 L 91.785156 28.050781 C 91.785156 28.050781 90.601562 26.417969 88.75 26.417969 C 85.261719 26.417969 83.464844 29.890625 83.464844 33.882812 C 83.464844 36.460938 84.746094 38.984375 87.367188 38.984375 C 89.25 38.984375 90.292969 37.671875 90.292969 37.671875 L 90.15625 38.792969 L 93.214844 38.792969 L 95.617188 23.839844 Z M 91.003906 32.050781 C 91.003906 33.710938 90.179688 35.929688 88.476562 35.929688 C 87.34375 35.929688 86.8125 34.980469 86.8125 33.488281 C 86.8125 31.050781 87.910156 29.441406 89.292969 29.441406 C 90.421875 29.441406 91.003906 30.21875 91.003906 32.050781 Z M 91.003906 32.050781 "/>
<path style=" stroke:none;fill-rule:nonzero;fill:rgb(0%,0%,40.000001%);fill-opacity:1;" d="M 5.667969 38.804688 L 7.582031 27.515625 L 7.863281 38.804688 L 10.03125 38.804688 L 14.070312 27.515625 L 12.28125 38.804688 L 15.5 38.804688 L 17.980469 23.832031 L 12.867188 23.792969 L 9.824219 32.960938 L 9.742188 23.832031 L 5.054688 23.832031 L 2.539062 38.804688 Z M 5.667969 38.804688 "/>
<path style=" stroke:none;fill-rule:nonzero;fill:rgb(0%,0%,40.000001%);fill-opacity:1;" d="M 54.117188 38.828125 C 55.035156 33.621094 55.359375 29.511719 58.03125 30.363281 C 58.414062 28.347656 59.328125 26.597656 59.742188 25.742188 C 59.742188 25.742188 59.613281 25.546875 58.785156 25.546875 C 57.378906 25.546875 55.5 28.40625 55.5 28.40625 L 55.78125 26.636719 L 52.851562 26.636719 L 50.890625 38.828125 Z M 54.117188 38.828125 "/>
<path style=" stroke:none;fill-rule:nonzero;fill:rgb(0%,0%,40.000001%);fill-opacity:1;" d="M 73.003906 26.335938 C 70.84375 26.335938 69.191406 27.027344 69.191406 27.027344 L 68.734375 29.738281 C 68.734375 29.738281 70.101562 29.183594 72.164062 29.183594 C 73.332031 29.183594 74.191406 29.316406 74.191406 30.265625 C 74.191406 30.84375 74.085938 31.058594 74.085938 31.058594 C 74.085938 31.058594 73.160156 30.980469 72.734375 30.980469 C 69.664062 30.980469 67.15625 32.140625 67.15625 35.640625 C 67.15625 38.398438 69.03125 39.03125 70.191406 39.03125 C 72.410156 39.03125 73.289062 37.628906 73.339844 37.625 L 73.316406 38.789062 L 76.085938 38.789062 L 77.320312 30.128906 C 77.320312 26.453125 74.113281 26.335938 73.003906 26.335938 Z M 73.480469 33.367188 C 73.539062 33.894531 73.34375 36.394531 71.449219 36.394531 C 70.472656 36.394531 70.21875 35.648438 70.21875 35.207031 C 70.21875 34.347656 70.6875 33.3125 72.992188 33.3125 C 73.527344 33.3125 73.390625 33.351562 73.480469 33.367188 Z M 73.480469 33.367188 "/>
<path style=" stroke:none;fill-rule:nonzero;fill:rgb(0%,0%,40.000001%);fill-opacity:1;" d="M 80.507812 38.828125 C 81.011719 34.996094 81.941406 29.621094 84.417969 30.363281 C 84.800781 28.347656 84.429688 28.351562 83.605469 28.351562 C 82.199219 28.351562 81.886719 28.40625 81.886719 28.40625 L 82.167969 26.636719 L 79.238281 26.636719 L 77.277344 38.828125 Z M 80.507812 38.828125 "/>
<path style=" stroke:none;fill-rule:nonzero;fill:rgb(100%,100%,100%);fill-opacity:1;" d="M 40.8125 37.6875 L 41.203125 35.011719 C 40.988281 35.011719 40.671875 35.105469 40.394531 35.105469 C 39.300781 35.105469 39.179688 34.523438 39.25 34.09375 L 40.132812 28.640625 L 41.796875 28.640625 L 42.199219 25.683594 L 40.628906 25.683594 L 40.949219 23.84375 L 37.804688 23.84375 C 37.734375 23.914062 35.949219 34.183594 35.949219 35.433594 C 35.949219 37.285156 36.988281 38.113281 38.453125 38.097656 C 39.601562 38.089844 40.496094 37.769531 40.8125 37.6875 Z M 40.8125 37.6875 "/>
<path style=" stroke:none;fill-rule:nonzero;fill:rgb(100%,100%,100%);fill-opacity:1;" d="M 41.808594 32.589844 C 41.808594 37.035156 44.742188 38.089844 47.238281 38.089844 C 49.546875 38.089844 50.5625 37.574219 50.5625 37.574219 L 51.117188 34.542969 C 51.117188 34.542969 49.359375 35.3125 47.777344 35.3125 C 44.398438 35.3125 44.992188 32.796875 44.992188 32.796875 L 51.382812 32.796875 C 51.382812 32.796875 51.792969 30.757812 51.792969 29.929688 C 51.792969 27.855469 50.761719 25.332031 47.308594 25.332031 C 44.148438 25.332031 41.808594 28.738281 41.808594 32.589844 Z M 47.324219 28.148438 C 49.097656 28.148438 48.769531 30.144531 48.769531 30.304688 L 45.277344 30.304688 C 45.277344 30.097656 45.609375 28.148438 47.324219 28.148438 Z M 47.324219 28.148438 "/>
<path style=" stroke:none;fill-rule:nonzero;fill:rgb(100%,100%,100%);fill-opacity:1;" d="M 67.234375 37.683594 L 67.796875 34.257812 C 67.796875 34.257812 66.253906 35.03125 65.195312 35.03125 C 62.964844 35.03125 62.070312 33.328125 62.070312 31.496094 C 62.070312 27.785156 63.992188 25.742188 66.128906 25.742188 C 67.730469 25.742188 69.015625 26.640625 69.015625 26.640625 L 69.527344 23.3125 C 69.527344 23.3125 67.621094 22.539062 65.988281 22.539062 C 62.355469 22.539062 58.824219 25.6875 58.824219 31.601562 C 58.824219 35.523438 60.730469 38.117188 64.484375 38.117188 C 65.546875 38.117188 67.234375 37.683594 67.234375 37.683594 Z M 67.234375 37.683594 "/>
<path style=" stroke:none;fill-rule:nonzero;fill:rgb(100%,100%,100%);fill-opacity:1;" d="M 23.515625 25.382812 C 21.359375 25.382812 19.707031 26.074219 19.707031 26.074219 L 19.25 28.78125 C 19.25 28.78125 20.613281 28.230469 22.675781 28.230469 C 23.847656 28.230469 24.703125 28.359375 24.703125 29.3125 C 24.703125 29.890625 24.597656 30.101562 24.597656 30.101562 C 24.597656 30.101562 23.675781 30.027344 23.246094 30.027344 C 20.527344 30.027344 17.671875 31.1875 17.671875 34.6875 C 17.671875 37.441406 19.546875 38.074219 20.707031 38.074219 C 22.925781 38.074219 23.882812 36.636719 23.933594 36.632812 L 23.828125 37.832031 L 26.597656 37.832031 L 27.835938 29.171875 C 27.835938 25.5 24.628906 25.382812 23.515625 25.382812 Z M 24.1875 32.433594 C 24.25 32.960938 23.859375 35.441406 21.964844 35.441406 C 20.988281 35.441406 20.734375 34.695312 20.734375 34.253906 C 20.734375 33.394531 21.203125 32.359375 23.503906 32.359375 C 24.042969 32.359375 24.097656 32.417969 24.1875 32.433594 Z M 24.1875 32.433594 "/>
<path style=" stroke:none;fill-rule:nonzero;fill:rgb(100%,100%,100%);fill-opacity:1;" d="M 30.777344 38.011719 C 31.484375 38.011719 35.535156 38.191406 35.535156 34.015625 C 35.535156 30.109375 31.785156 30.878906 31.785156 29.308594 C 31.785156 28.527344 32.398438 28.28125 33.515625 28.28125 C 33.957031 28.28125 35.664062 28.425781 35.664062 28.425781 L 36.058594 25.648438 C 36.058594 25.648438 34.957031 25.398438 33.160156 25.398438 C 30.832031 25.398438 28.46875 26.328125 28.46875 29.507812 C 28.46875 33.105469 32.40625 32.746094 32.40625 34.261719 C 32.40625 35.273438 31.308594 35.355469 30.460938 35.355469 C 28.992188 35.355469 27.671875 34.851562 27.667969 34.878906 L 27.25 37.625 C 27.324219 37.648438 28.140625 38.011719 30.777344 38.011719 Z M 30.777344 38.011719 "/>
<path style=" stroke:none;fill-rule:nonzero;fill:rgb(100%,100%,100%);fill-opacity:1;" d="M 93.285156 22.890625 L 92.605469 27.097656 C 92.605469 27.097656 91.421875 25.464844 89.570312 25.464844 C 86.6875 25.464844 84.285156 28.9375 84.285156 32.929688 C 84.285156 35.503906 85.566406 38.03125 88.1875 38.03125 C 90.070312 38.03125 91.113281 36.71875 91.113281 36.71875 L 90.976562 37.839844 L 94.035156 37.839844 L 96.4375 22.882812 Z M 91.824219 31.097656 C 91.824219 32.757812 91 34.976562 89.296875 34.976562 C 88.164062 34.976562 87.632812 34.027344 87.632812 32.535156 C 87.632812 30.097656 88.730469 28.488281 90.109375 28.488281 C 91.242188 28.488281 91.824219 29.265625 91.824219 31.097656 Z M 91.824219 31.097656 "/>
<path style=" stroke:none;fill-rule:nonzero;fill:rgb(100%,100%,100%);fill-opacity:1;" d="M 6.488281 37.851562 L 8.402344 26.5625 L 8.683594 37.851562 L 10.851562 37.851562 L 14.890625 26.5625 L 13.101562 37.851562 L 16.320312 37.851562 L 18.800781 22.878906 L 13.824219 22.878906 L 10.722656 32.066406 L 10.5625 22.878906 L 5.972656 22.878906 L 3.457031 37.851562 Z M 6.488281 37.851562 "/>
<path style=" stroke:none;fill-rule:nonzero;fill:rgb(100%,100%,100%);fill-opacity:1;" d="M 54.9375 37.871094 C 55.855469 32.667969 56.023438 28.441406 58.207031 29.214844 C 58.589844 27.199219 58.960938 26.421875 59.378906 25.566406 C 59.378906 25.566406 59.183594 25.527344 58.769531 25.527344 C 57.363281 25.527344 56.320312 27.449219 56.320312 27.449219 L 56.601562 25.683594 L 53.671875 25.683594 L 51.710938 37.871094 Z M 54.9375 37.871094 "/>
<path style=" stroke:none;fill-rule:nonzero;fill:rgb(100%,100%,100%);fill-opacity:1;" d="M 74.492188 25.382812 C 72.335938 25.382812 70.683594 26.074219 70.683594 26.074219 L 70.226562 28.78125 C 70.226562 28.78125 71.589844 28.230469 73.652344 28.230469 C 74.824219 28.230469 75.679688 28.359375 75.679688 29.3125 C 75.679688 29.890625 75.574219 30.101562 75.574219 30.101562 C 75.574219 30.101562 74.652344 30.027344 74.222656 30.027344 C 71.503906 30.027344 68.648438 31.1875 68.648438 34.6875 C 68.648438 37.441406 70.523438 38.074219 71.683594 38.074219 C 73.902344 38.074219 74.859375 36.636719 74.910156 36.632812 L 74.804688 37.832031 C 74.804688 37.832031 77.574219 37.832031 77.574219 37.832031 L 78.808594 29.171875 C 78.808594 25.5 75.605469 25.382812 74.492188 25.382812 Z M 75.167969 32.433594 C 75.226562 32.960938 74.835938 35.441406 72.941406 35.441406 C 71.964844 35.441406 71.710938 34.695312 71.710938 34.253906 C 71.710938 33.394531 72.179688 32.359375 74.480469 32.359375 C 75.019531 32.359375 75.074219 32.417969 75.167969 32.433594 Z M 75.167969 32.433594 "/>
<path style=" stroke:none;fill-rule:nonzero;fill:rgb(100%,100%,100%);fill-opacity:1;" d="M 81.339844 37.871094 C 82.257812 32.667969 82.425781 28.441406 84.609375 29.214844 C 84.992188 27.199219 85.363281 26.421875 85.777344 25.566406 C 85.777344 25.566406 85.582031 25.527344 85.171875 25.527344 C 83.765625 25.527344 82.722656 27.449219 82.722656 27.449219 L 83 25.683594 L 80.074219 25.683594 L 78.113281 37.871094 Z M 81.339844 37.871094 "/>
<path style=" stroke:none;fill-rule:nonzero;fill:rgb(100%,100%,100%);fill-opacity:1;" d="M 96.367188 35.992188 C 96.527344 35.992188 96.683594 36.03125 96.835938 36.117188 C 96.988281 36.195312 97.109375 36.316406 97.195312 36.46875 C 97.28125 36.621094 97.320312 36.78125 97.320312 36.945312 C 97.320312 37.113281 97.28125 37.269531 97.195312 37.421875 C 97.113281 37.574219 96.996094 37.691406 96.84375 37.777344 C 96.691406 37.859375 96.53125 37.902344 96.367188 37.902344 C 96.203125 37.902344 96.042969 37.859375 95.890625 37.777344 C 95.742188 37.691406 95.621094 37.574219 95.539062 37.421875 C 95.453125 37.269531 95.410156 37.113281 95.410156 36.945312 C 95.410156 36.78125 95.453125 36.621094 95.539062 36.46875 C 95.625 36.316406 95.746094 36.199219 95.898438 36.117188 C 96.050781 36.03125 96.207031 35.992188 96.367188 35.992188 M 96.367188 36.148438 C 96.234375 36.148438 96.105469 36.183594 95.976562 36.253906 C 95.847656 36.320312 95.75 36.417969 95.679688 36.546875 C 95.605469 36.675781 95.570312 36.808594 95.570312 36.945312 C 95.570312 37.085938 95.605469 37.214844 95.675781 37.34375 C 95.746094 37.46875 95.84375 37.566406 95.972656 37.636719 C 96.097656 37.707031 96.230469 37.742188 96.367188 37.742188 C 96.503906 37.742188 96.636719 37.707031 96.765625 37.636719 C 96.890625 37.566406 96.988281 37.46875 97.058594 37.34375 C 97.128906 37.214844 97.164062 37.085938 97.164062 36.945312 C 97.164062 36.808594 97.128906 36.675781 97.058594 36.546875 C 96.984375 36.417969 96.886719 36.320312 96.757812 36.253906 C 96.632812 36.183594 96.503906 36.148438 96.367188 36.148438 M 95.949219 37.472656 L 95.949219 36.445312 L 96.304688 36.445312 C 96.425781 36.445312 96.511719 36.457031 96.566406 36.476562 C 96.621094 36.496094 96.660156 36.527344 96.695312 36.574219 C 96.726562 36.621094 96.742188 36.671875 96.742188 36.726562 C 96.742188 36.800781 96.714844 36.867188 96.660156 36.921875 C 96.609375 36.976562 96.539062 37.007812 96.449219 37.015625 C 96.484375 37.03125 96.515625 37.046875 96.535156 37.070312 C 96.578125 37.109375 96.628906 37.175781 96.6875 37.273438 L 96.8125 37.472656 L 96.613281 37.472656 L 96.519531 37.3125 C 96.449219 37.183594 96.390625 37.105469 96.347656 37.074219 C 96.316406 37.050781 96.273438 37.039062 96.214844 37.039062 L 96.117188 37.039062 L 96.117188 37.476562 L 95.949219 37.472656 M 96.117188 36.894531 L 96.316406 36.894531 C 96.414062 36.894531 96.480469 36.882812 96.511719 36.851562 C 96.546875 36.824219 96.566406 36.785156 96.566406 36.738281 C 96.566406 36.707031 96.558594 36.679688 96.542969 36.660156 C 96.523438 36.632812 96.5 36.617188 96.46875 36.605469 C 96.441406 36.59375 96.386719 36.585938 96.304688 36.585938 L 96.117188 36.585938 L 96.117188 36.894531 "/>
</g>
</svg>
