<?xml version="1.0" encoding="UTF-8"?>
<svg width="900" height="1200" viewBox="0 0 900 1200" fill="none" xmlns="http://www.w3.org/2000/svg">
  <defs>
    <linearGradient id="g" x1="0" y1="0" x2="900" y2="1200" gradientUnits="userSpaceOnUse">
      <stop stop-color="#F8FAFC"/>
      <stop offset="1" stop-color="#EEF2FF"/>
    </linearGradient>
    <filter id="shadow" x="0" y="0" width="100%" height="100%">
      <feDropShadow dx="0" dy="10" stdDeviation="18" flood-color="#0F172A" flood-opacity="0.18"/>
    </filter>
    <pattern id="dots" width="14" height="14" patternUnits="userSpaceOnUse">
      <circle cx="2" cy="2" r="1.3" fill="#CBD5E1"/>
    </pattern>
  </defs>

  <rect x="0" y="0" width="900" height="1200" fill="url(#g)"/>

  <g filter="url(#shadow)">
    <rect x="120" y="70" width="660" height="1060" rx="18" fill="#FFFFFF"/>
  </g>

  <rect x="120" y="70" width="660" height="120" rx="18" fill="#111827"/>
  <text x="160" y="135" font-family="Inter, system-ui, -apple-system" font-size="28" font-weight="700" fill="#FFFFFF">Autobot Commerce</text>
  <text x="160" y="170" font-family="Inter, system-ui, -apple-system" font-size="14" fill="#CBD5E1">Mock Receipt / สาธิตใบเสร็จ</text>

  <rect x="160" y="230" width="580" height="110" rx="14" fill="#F8FAFC" stroke="#E2E8F0"/>
  <text x="190" y="265" font-family="Inter, system-ui" font-size="13" fill="#64748B">Ref</text>
  <text x="190" y="292" font-family="Inter, system-ui" font-size="18" font-weight="700" fill="#0F172A">PAY-20251223-001-1730</text>
  <text x="190" y="320" font-family="Inter, system-ui" font-size="12" fill="#64748B">Submitted: 2025-12-23 14:32</text>

  <rect x="520" y="248" width="200" height="74" rx="14" fill="#EEF2FF" stroke="#C7D2FE"/>
  <text x="545" y="285" font-family="Inter, system-ui" font-size="14" fill="#4338CA">Status</text>
  <text x="545" y="315" font-family="Inter, system-ui" font-size="16" font-weight="700" fill="#4338CA">PENDING</text>

  <text x="160" y="390" font-family="Inter, system-ui" font-size="14" font-weight="700" fill="#0F172A">Order</text>
  <rect x="160" y="406" width="580" height="118" rx="14" fill="#FFFFFF" stroke="#E2E8F0"/>
  <text x="190" y="444" font-family="Inter, system-ui" font-size="13" fill="#64748B">Order No</text>
  <text x="190" y="472" font-family="Inter, system-ui" font-size="18" font-weight="700" fill="#0F172A">ORD-TEST1-00042</text>
  <text x="190" y="502" font-family="Inter, system-ui" font-size="13" fill="#64748B">Item</text>
  <text x="250" y="502" font-family="Inter, system-ui" font-size="13" fill="#0F172A">AI Chatbot (Commerce) / Monthly</text>

  <text x="160" y="570" font-family="Inter, system-ui" font-size="14" font-weight="700" fill="#0F172A">Amount</text>
  <rect x="160" y="586" width="580" height="120" rx="14" fill="#FFFFFF" stroke="#E2E8F0"/>
  <text x="190" y="630" font-family="Inter, system-ui" font-size="13" fill="#64748B">Total</text>
  <text x="190" y="680" font-family="Inter, system-ui" font-size="34" font-weight="800" fill="#111827">฿ 1,490.00</text>
  <rect x="520" y="615" width="220" height="64" rx="16" fill="#ECFDF5" stroke="#A7F3D0"/>
  <text x="545" y="654" font-family="Inter, system-ui" font-size="14" fill="#065F46">Method</text>
  <text x="545" y="682" font-family="Inter, system-ui" font-size="16" font-weight="700" fill="#065F46">Bank transfer</text>

  <text x="160" y="760" font-family="Inter, system-ui" font-size="14" font-weight="700" fill="#0F172A">Slip preview</text>
  <rect x="160" y="776" width="580" height="290" rx="14" fill="#F8FAFC" stroke="#E2E8F0"/>
  <rect x="190" y="806" width="520" height="230" rx="12" fill="url(#dots)"/>
  <rect x="215" y="835" width="470" height="36" rx="10" fill="#111827"/>
  <text x="235" y="860" font-family="Inter, system-ui" font-size="14" font-weight="700" fill="#FFFFFF">BANK TRANSFER SLIP</text>
  <text x="235" y="905" font-family="Inter, system-ui" font-size="13" fill="#0F172A">From: Test User (test1@gmail.com)</text>
  <text x="235" y="932" font-family="Inter, system-ui" font-size="13" fill="#0F172A">To: Autobot Commerce Co., Ltd.</text>
  <text x="235" y="959" font-family="Inter, system-ui" font-size="13" fill="#0F172A">Amount: ฿ 1,490.00</text>
  <text x="235" y="986" font-family="Inter, system-ui" font-size="13" fill="#0F172A">Time: 2025-12-23 14:31</text>
  <text x="235" y="1013" font-family="Inter, system-ui" font-size="13" fill="#0F172A">Note: Demo slip for UI preview</text>

  <rect x="160" y="1090" width="580" height="1" fill="#E2E8F0"/>
  <text x="160" y="1120" font-family="Inter, system-ui" font-size="12" fill="#64748B">This is a mock image for demonstration. ระบบจริงดึงรูปจาก slip_image ในฐานข้อมูล</text>

</svg>
