<?xml version="1.0" encoding="UTF-8"?>
<svg xmlns="http://www.w3.org/2000/svg" xmlns:xlink="http://www.w3.org/1999/xlink" width="100px" height="32px" viewBox="0 0 98 32" version="1.1">
<g id="surface1">
<path style=" stroke:none;fill-rule:nonzero;fill:rgb(0%,34.117648%,62.352943%);fill-opacity:1;" d="M 42.46875 31.503906 L 34.53125 31.503906 L 39.496094 0.5625 L 47.433594 0.5625 Z M 42.46875 31.503906 "/>
<path style=" stroke:none;fill-rule:nonzero;fill:rgb(0%,34.117648%,62.352943%);fill-opacity:1;" d="M 71.25 1.316406 C 69.683594 0.691406 67.199219 0 64.128906 0 C 56.289062 0 50.765625 4.214844 50.734375 10.238281 C 50.667969 14.683594 54.6875 17.148438 57.691406 18.632812 C 60.761719 20.144531 61.804688 21.132812 61.804688 22.484375 C 61.773438 24.558594 59.324219 25.511719 57.039062 25.511719 C 53.867188 25.511719 52.171875 25.019531 49.589844 23.867188 L 48.542969 23.371094 L 47.433594 30.320312 C 49.296875 31.171875 52.726562 31.933594 56.289062 31.964844 C 64.617188 31.964844 70.039062 27.816406 70.105469 21.398438 C 70.136719 17.875 68.015625 15.175781 63.441406 12.972656 C 60.664062 11.554688 58.964844 10.601562 58.964844 9.152344 C 58.996094 7.835938 60.402344 6.484375 63.535156 6.484375 C 66.117188 6.417969 68.015625 7.046875 69.449219 7.671875 L 70.167969 8 Z M 71.25 1.316406 "/>
<path style=" stroke:none;fill-rule:nonzero;fill:rgb(0%,34.117648%,62.352943%);fill-opacity:1;" d="M 81.800781 20.542969 C 82.453125 18.765625 84.96875 11.882812 84.96875 11.882812 C 84.9375 11.949219 85.621094 10.074219 86.015625 8.921875 L 86.570312 11.589844 C 86.570312 11.589844 88.074219 18.996094 88.398438 20.542969 C 87.15625 20.542969 83.367188 20.542969 81.800781 20.542969 Z M 91.601562 0.5625 L 85.457031 0.5625 C 83.566406 0.5625 82.125 1.121094 81.308594 3.128906 L 69.515625 31.503906 L 77.847656 31.503906 C 77.847656 31.503906 79.21875 27.683594 79.511719 26.863281 C 80.425781 26.863281 88.53125 26.863281 89.707031 26.863281 C 89.933594 27.949219 90.652344 31.503906 90.652344 31.503906 L 98.003906 31.503906 Z M 91.601562 0.5625 "/>
<path style=" stroke:none;fill-rule:nonzero;fill:rgb(0%,34.117648%,62.352943%);fill-opacity:1;" d="M 27.898438 0.5625 L 20.125 21.660156 L 19.273438 17.382812 C 17.835938 12.445312 13.328125 7.078125 8.296875 4.410156 L 15.417969 31.472656 L 23.816406 31.472656 L 36.292969 0.5625 Z M 27.898438 0.5625 "/>
<path style=" stroke:none;fill-rule:nonzero;fill:rgb(98.039216%,65.098041%,10.196079%);fill-opacity:1;" d="M 12.902344 0.5625 L 0.128906 0.5625 L 0 1.1875 C 9.964844 3.753906 16.5625 9.945312 19.273438 17.382812 L 16.496094 3.160156 C 16.039062 1.1875 14.636719 0.625 12.902344 0.5625 Z M 12.902344 0.5625 "/>
</g>
</svg>
